HIERARCHY
ROOT Hips
{
  OFFSET 196.326 95.9168 97.7182
  CHANNELS 6 Xposition Yposition Zposition Zrotation Xrotation Yrotation
  JOINT LeftUpLeg
  {
    OFFSET 8.64259 1.95398 -2.38835
    CHANNELS 3 Zrotation Xrotation Yrotation
    JOINT LeftLeg
    {
      OFFSET 43.7702 0 0
      CHANNELS 3 Zrotation Xrotation Yrotation
      JOINT LeftFoot
      {
        OFFSET 40.6238 0 0
        CHANNELS 3 Zrotation Xrotation Yrotation
        JOINT LeftToeBase
        {
          OFFSET 12.7242 0 0
          CHANNELS 3 Zrotation Xrotation Yrotation
          End Site
          {
            OFFSET 0 0 0
          }
        }
      }
    }
  }
  JOINT RightUpLeg
  {
    OFFSET -8.2249 1.95398 -2.59336
    CHANNELS 3 Zrotation Xrotation Yrotation
    JOINT RightLeg
    {
      OFFSET 43.5653 0 0
      CHANNELS 3 Zrotation Xrotation Yrotation
      JOINT RightFoot
      {
        OFFSET 40.6238 0 0
        CHANNELS 3 Zrotation Xrotation Yrotation
        JOINT RightToeBase
        {
          OFFSET 12.7242 0 0
          CHANNELS 3 Zrotation Xrotation Yrotation
          End Site
          {
            OFFSET 0 0 0
          }
        }
      }
    }
  }
  JOINT Spine
  {
    OFFSET 0.165834 0.87714 6.61349
    CHANNELS 3 Zrotation Xrotation Yrotation
    JOINT Spine1
    {
      OFFSET 7.38963 1.71661e-005 0
      CHANNELS 3 Zrotation Xrotation Yrotation
      JOINT Spine2
      {
        OFFSET 11.9445 1.14441e-005 0
        CHANNELS 3 Zrotation Xrotation Yrotation
        JOINT Spine3
        {
          OFFSET 14.7254 4.19617e-005 0
          CHANNELS 3 Zrotation Xrotation Yrotation
          JOINT Spine4
          {
            OFFSET 10.9679 0 0
            CHANNELS 3 Zrotation Xrotation Yrotation
            JOINT RightShoulder
            {
              OFFSET 2.46616 -1.6653 3.69651
              CHANNELS 3 Zrotation Xrotation Yrotation
              JOINT RightArm
              {
                OFFSET 13.0012 0 0
                CHANNELS 3 Zrotation Xrotation Yrotation
                JOINT RightForeArm
                {
                  OFFSET 28.7848 1.52588e-005 0
                  CHANNELS 3 Zrotation Xrotation Yrotation
                  JOINT RightHand
                  {
                    OFFSET 26.5688 1.52588e-005 0
                    CHANNELS 3 Zrotation Xrotation Yrotation
                    End Site
                    {
                      OFFSET 0 0 0
                    }
                  }
                }
              }
            }
            JOINT LeftShoulder
            {
              OFFSET 2.38034 -1.29275 -3.75231
              CHANNELS 3 Zrotation Xrotation Yrotation
              JOINT LeftArm
              {
                OFFSET 16.3182 6.10351e-005 0
                CHANNELS 3 Zrotation Xrotation Yrotation
                JOINT LeftForeArm
                {
                  OFFSET 27.0901 0 0
                  CHANNELS 3 Zrotation Xrotation Yrotation
                  JOINT LeftHand
                  {
                    OFFSET 24.5451 1.52588e-005 0
                    CHANNELS 3 Zrotation Xrotation Yrotation
                    End Site
                    {
                      OFFSET 0 0 0
                    }
                  }
                }
              }
            }
            JOINT Neck
            {
              OFFSET 5.0226 -0.0266342 0
              CHANNELS 3 Zrotation Xrotation Yrotation
              JOINT Head
              {
                OFFSET 6.69363 2.86102e-005 0
                CHANNELS 3 Zrotation Xrotation Yrotation
                End Site
                {
                  OFFSET 0 0 0
                }
              }
            }
          }
        }
      }
    }
  }
}
MOTION
Frames:	12
Frame Time:	0.0416667
52.9674 88.7172 12.0554 20.4965 -76.877 25.2614 -160.916 55.4915 84.8314 -39.4945 10.7866 -7.19965 55.7125 -0.173551 11.8398 53.7111 28.1699 2.50189 175.159 12.0232 76.6174 -32.873 -3.10501 -6.30258 52.8969 -0.0205649 0.351872 64.8659 4.68189 9.55986 1.11457 8.11189 -90.0622 10.6544 2.19116 -0.322728 -1.01473 2.17483 -0.418903 -23.5645 2.1868 0.351058 -3.55188 2.1868 0.351047 86.6323 -44.3477 -107.706 27.9357 -8.62854 4.11142 -25.5879 7.5362 -97.8967 -35.2793 -3.42687 7.1164 -98.4438 -40.7869 62.7669 -58.8345 13.2448 38.7144 11.2908 9.70516 -59.1251 23.752 2.5082 6.80658 8.85927 8.47975 -2.9253 11.689 10.6892 10.7659 
57.2564 90.2579 19.9978 29.7245 -75.4301 36.6759 -165.779 54.1331 88.6952 -27.7547 15.5661 -7.15622 50.6103 -4.95124 9.68882 53.0472 26.4982 -0.204314 173.823 4.00569 77.097 -23.8368 -1.95411 -5.95985 40.0279 3.3027 3.65857 45.9315 2.33727 11.5546 1.36427 7.85927 -90.1948 11.1655 2.62494 -0.642485 -0.503058 2.59412 -0.757465 -23.0595 2.69658 0.176693 -3.04689 2.69658 0.176684 87.0574 -43.9546 -107.144 27.946 -8.551 7.87761 -24.273 8.90601 -100.322 -35.555 -3.23367 6.30235 -96.4979 -39.4691 65.3828 -60.9749 10.6682 42.2855 9.90303 6.85203 -61.213 23.7684 2.06195 4.86745 6.79351 6.66692 -2.61736 11.97 8.50617 8.66146 
61.2797 91.7406 27.6954 34.1852 -74.0416 44.3045 -168.263 53.7204 91.9611 -22.7809 15.9219 -6.68273 49.3532 -6.23376 9.29697 53.464 22.2759 -15.5101 176.163 -0.644198 80.9351 -22.5793 -0.96739 -7.47296 35.3297 4.26111 4.98082 27.5511 -0.540713 6.16074 1.65795 7.53636 -90.3433 11.8185 3.13577 -1.01762 0.150852 3.08795 -1.15476 -22.4146 3.29648 -0.0271547 -2.40198 3.29649 -0.0271482 86.9294 -43.9663 -107.349 28.0433 -8.67234 12.3611 -24.061 8.23843 -100.419 -36.6611 -3.78662 7.68817 -95.0232 -38.1446 67.3124 -61.1502 7.80854 45.0833 9.95643 4.89365 -63.8033 22.9803 1.75287 3.81402 4.77154 5.19803 -2.99206 12.1669 6.85445 7.1364 
64.7368 92.1267 34.7534 36.2749 -72.8216 48.2838 -167.449 54.5022 92.5999 -25.3984 11.2399 -6.90551 50.4421 -5.95916 8.76619 45.2628 16.3298 -10.1288 177.686 -0.814366 83.8803 -30.1305 4.14776 -6.91675 40.5612 1.96973 2.41638 27.7431 -0.610682 7.57535 1.87017 7.3177 -90.2806 12.2589 3.58404 -0.962095 0.59237 3.53822 -1.11908 -21.9825 3.70726 0.160995 -1.96991 3.70727 0.161002 86.8312 -44.0227 -107.49 29.0009 -9.2277 15.5217 -23.038 7.11191 -98.2766 -37.1854 -3.82431 7.56225 -94.0728 -37.999 68.8571 -59.1288 5.58825 45.2838 9.34857 3.03641 -65.436 22.9454 1.68561 3.52585 5.12144 3.93136 -3.70413 11.7287 5.53494 5.99479 
68.267 91.6985 41.6559 43.3455 -69.9824 56.0822 -166.706 53.7645 90.363 -29.8013 8.74921 -6.39622 49.5657 -6.74354 7.13478 40.6654 12.342 -7.65904 177.743 1.04164 86.2011 -41.851 6.83502 -5.74911 40.0946 1.55813 2.05593 28.1451 -0.810628 11.0788 1.75004 7.21238 -90.0306 12.4609 3.46257 -0.458748 0.794449 3.43902 -0.610886 -21.777 3.44017 0.60437 -1.76438 3.44017 0.604363 86.0055 -45.9712 -108.179 29.2051 -9.27944 17.775 -21.8225 5.56298 -93.631 -33.3662 -3.3745 7.3255 -93.6037 -37.6511 69.5182 -55.4637 3.7558 43.4047 7.76889 1.2333 -65.9476 23.5667 1.88428 4.18197 6.07512 2.68417 -5.10398 11.2162 4.33278 4.46354 
71.4788 91.3345 48.5636 52.2731 -67.5029 64.2095 -166.302 49.7908 87.8995 -33.6105 14.642 -6.62541 51.0437 -4.49122 9.89078 34.8532 6.86946 -20.4802 177.257 3.15971 88.1113 -55.3624 6.5119 -5.03607 36.9601 2.18095 2.78358 25.9028 -1.40225 13.7689 1.39579 7.3295 -89.897 12.2206 2.82312 -0.108669 0.552754 2.81559 -0.232938 -22.006 2.72515 0.745465 -1.99337 2.72516 0.745455 85.2481 -45.1259 -109.666 30.4852 -10.0216 20.1927 -19.4514 2.59902 -87.7306 -29.9815 -2.7715 6.24237 -94.1505 -40.6263 69.6586 -50.1487 2.69115 39.713 6.11629 -0.246819 -65.6576 25.0241 2.10212 4.61049 5.92523 2.4519 -2.97862 11.3918 3.27732 1.83436 
74.6052 90.8228 55.2424 59.7659 -65.2633 69.9252 -166.377 45.095 85.5641 -39.0683 17.5274 -6.65509 57.5703 2.73314 14.8786 36.7493 7.90509 -28.2784 175.604 6.92468 88.8452 -69.2103 7.67135 -4.32963 34.9921 1.93854 2.64238 27.1037 -1.3489 15.8937 1.02717 7.50565 -89.5868 11.8573 2.237 0.584363 0.188142 2.26057 0.485283 -22.3583 1.95795 1.22987 -2.34564 1.95795 1.22986 84.0663 -45.8184 -111.291 31.311 -11.4312 22.2964 -17.1833 -0.898101 -81.8179 -26.739 -2.65482 7.00839 -94.2853 -42.6486 70.1102 -44.9512 0.94033 35.3872 4.9235 -1.78072 -66.2762 24.4892 2.05644 4.60971 5.87197 2.41988 -2.38507 11.3186 2.83279 -0.0419261 
77.7026 90.0293 61.7683 62.8138 -64.3322 71.456 -165.509 41.2028 83.9361 -43.9778 18.0727 -6.90297 62.0318 9.25188 19.5533 43.4141 12.4683 -27.3696 174.248 13.8486 89.7415 -82.842 12.0352 -4.41187 34.8856 0.462165 1.21442 28.7475 -0.995977 15.5628 0.883585 7.66216 -89.1705 11.5351 2.14588 1.43247 -0.134778 2.20684 1.33662 -22.6726 1.61624 2.01113 -2.65992 1.61624 2.01113 83.1535 -47.9995 -111.914 31.6477 -13.0686 23.539 -14.69 -2.79486 -76.2918 -22.3208 -2.12441 6.41634 -95.8343 -43.8586 68.0723 -39.4933 -1.16558 31.1282 5.06765 -2.36665 -68.881 26.3513 2.54082 5.88097 7.02049 2.02641 -4.5392 11.3874 2.89509 -0.075713 
80.548 89.2666 67.6958 63.8833 -63.3588 71.9939 -164.416 37.8766 82.9919 -46.907 17.5115 -7.0153 62.3572 12.7278 24.7798 56.7989 20.7814 -30.1209 172.623 23.6274 92.4611 -95.1504 15.7199 -4.96817 35.1321 -1.12269 -0.32545 31.2638 -0.359876 12.5486 0.67375 7.83499 -88.9137 11.1836 1.84576 1.98123 -0.487409 1.93114 1.89807 -23.0153 1.1652 2.44415 -3.00263 1.1652 2.44415 81.9449 -48.8509 -113.435 32.6738 -14.0245 24.5077 -14.0968 -4.77598 -71.1476 -17.7618 -1.56872 5.56068 -97.5745 -44.8519 65.7265 -34.3729 -3.15172 25.2232 4.76579 -2.77107 -71.6708 28.7749 2.986 6.58634 9.6442 1.99535 -5.34513 10.7341 3.04615 -0.679423 
83.8362 88.7792 73.1894 66.1427 -59.3278 74.3508 -166.402 33.7803 82.7968 -48.0545 16.8258 -5.86146 65.631 16.8224 25.3096 59.5367 22.7646 -29.3889 167.412 34.167 96.3637 -103.289 18.8181 -5.50869 34.5421 -2.51481 -1.66368 32.9989 -0.0400296 11.3811 0.210353 7.94741 -88.9047 10.9672 0.925955 2.0918 -0.704997 1.01711 2.04904 -23.2271 0.254658 2.27328 -3.21445 0.254655 2.27328 81.5846 -49.5224 -113.722 33.937 -16.0764 26.523 -12.8636 -6.84287 -66.7233 -16.3387 -1.34717 4.83538 -99.3617 -43.7551 62.5433 -31.1302 -4.44944 19.2391 8.03456 -1.29546 -74.78 31.9155 3.91749 8.59805 11.5902 1.83887 -5.64815 9.32918 3.06672 -0.616548 
87.7495 88.874 79.0023 64.9453 -56.1141 74.4098 -168.758 29.78 83.9044 -46.3237 19.886 -5.09856 65.4287 18.3074 27.9683 62.281 25.4888 -26.6449 162.819 44.5643 102.124 -106.692 19.8932 -6.02019 36.6198 -3.0979 -2.18683 34.7271 0.265888 9.92502 -0.200295 7.82487 -89.0626 11.2196 0.037423 1.86227 -0.452708 0.119318 1.85881 -22.9777 -0.523913 1.78746 -2.96508 -0.523907 1.78747 81.1174 -49.6003 -114.39 35.7352 -17.6533 30.39 -12.4844 -7.81619 -64.6557 -15.1545 -0.99971 2.67789 -98.5139 -42.0551 63.1789 -30.0168 -5.64897 14.2639 11.7651 -0.186684 -80.6826 31.4848 4.20657 9.67965 12.7112 2.17753 -6.08308 7.9006 3.58687 -0.445858 
91.9523 89.6844 84.8929 65.3428 -53.3893 75.5521 -171.154 24.0223 85.0881 -42.7669 22.1092 -3.70417 63.9459 16.9157 27.4458 64.9774 28.2497 -24.2506 159.361 52.5092 106.282 -105.724 19.7742 -5.85311 40.3828 -2.85585 -1.89302 37.9547 0.690433 7.11186 -0.596878 7.70751 -89.2551 11.4624 -0.839548 1.56924 -0.209308 -0.76966 1.60464 -22.7414 -1.27233 1.24444 -2.72878 -1.27231 1.24443 81.1133 -50.2921 -114.132 37.2323 -18.8445 35.5282 -14.6321 -8.69474 -65.1495 -13.1266 -0.807901 1.95998 -97.2866 -40.4114 64.4734 -30.0555 -5.81745 11.308 15.0503 -1.3051 -88.7625 31.9453 4.30728 9.80671 12.4285 2.60007 -7.0827 7.1998 4.3689 0.654164 
